<svg width="40" height="40" viewBox="0 0 40 40" fill="none" xmlns="http://www.w3.org/2000/svg">
<g id="Bag">
<path id="Vector 9" d="M13.3335 13.3333L13.3335 11.6667C13.3335 7.98477 16.3183 5 20.0002 5V5C23.6821 5 26.6668 7.98477 26.6668 11.6667L26.6668 13.3333" stroke="#33363F" stroke-width="2" stroke-linecap="round"/>
<path id="Vector 11" d="M25 23.3333V20" stroke="#33363F" stroke-width="2" stroke-linecap="round"/>
<path id="Vector 12" d="M15 23.3333V20" stroke="#33363F" stroke-width="2" stroke-linecap="round"/>
<path id="Rectangle 1" d="M6.6665 17.3333C6.6665 15.4477 6.6665 14.5049 7.25229 13.9191C7.83808 13.3333 8.78089 13.3333 10.6665 13.3333H29.3332C31.2188 13.3333 32.1616 13.3333 32.7474 13.9191C33.3332 14.5049 33.3332 15.4477 33.3332 17.3333V27C33.3332 30.7712 33.3332 32.6569 32.1616 33.8284C30.99 35 29.1044 35 25.3332 35H14.6665C10.8953 35 9.00965 35 7.83808 33.8284C6.6665 32.6569 6.6665 30.7712 6.6665 27V17.3333Z" stroke="#33363F" stroke-width="2"/>
</g>
</svg>
