<svg width="30" height="30" viewBox="0 0 40 40" fill="none" xmlns="http://www.w3.org/2000/svg">
<g id="Book_open">
<path id="Vector 58" d="M7 28.3332H15C16.8692 28.3332 17.8038 28.3332 18.5 28.7351C18.9561 28.9984 19.3348 29.3771 19.5981 29.8332C20 30.5293 20 31.4639 20 33.3332V12.6665C20 9.83808 20 8.42386 19.1213 7.54518C18.2426 6.6665 16.8284 6.6665 14 6.6665H7C6.05719 6.6665 5.58579 6.6665 5.29289 6.9594C5 7.25229 5 7.72369 5 8.6665V26.3332C5 27.276 5 27.7474 5.29289 28.0403C5.58579 28.3332 6.05719 28.3332 7 28.3332Z" stroke="#33363F" stroke-width="2"/>
<path id="Vector 59" d="M33 28.3332H25C23.1308 28.3332 22.1962 28.3332 21.5 28.7351C21.0439 28.9984 20.6652 29.3771 20.4019 29.8332C20 30.5293 20 31.4639 20 33.3332V12.6665C20 9.83808 20 8.42386 20.8787 7.54518C21.7574 6.6665 23.1716 6.6665 26 6.6665H33C33.9428 6.6665 34.4142 6.6665 34.7071 6.9594C35 7.25229 35 7.72369 35 8.6665V26.3332C35 27.276 35 27.7474 34.7071 28.0403C34.4142 28.3332 33.9428 28.3332 33 28.3332Z" stroke="#33363F" stroke-width="2"/>
</g>
</svg>
