<svg width="30" height="30" viewBox="0 0 40 40" fill="none" xmlns="http://www.w3.org/2000/svg">
<g id="Book">
<path id="Vector 57" d="M33.3334 20V31C33.3334 32.8856 33.3334 33.8284 32.7476 34.4142C32.1618 35 31.219 35 29.3334 35H10.8334C9.74775 35 9.20494 35 8.76457 34.8612C7.83108 34.5668 7.09986 33.8356 6.80554 32.9021C6.66669 32.4617 6.66669 31.9189 6.66669 30.8333V30.8333C6.66669 29.7477 6.66669 29.2049 6.80554 28.7645C7.09986 27.8311 7.83108 27.0998 8.76457 26.8055C9.20494 26.6667 9.74775 26.6667 10.8334 26.6667H29.3334C31.219 26.6667 32.1618 26.6667 32.7476 26.0809C33.3334 25.4951 33.3334 24.5523 33.3334 22.6667V9C33.3334 7.11438 33.3334 6.17157 32.7476 5.58579C32.1618 5 31.219 5 29.3334 5H10.6667C8.78107 5 7.83826 5 7.25247 5.58579C6.66669 6.17157 6.66669 7.11438 6.66669 9V30.8333" stroke="#33363F" stroke-width="2"/>
<path id="Vector 55" d="M15 13.3335L25 13.3335" stroke="#33363F" stroke-width="2" stroke-linecap="round"/>
</g>
</svg>
