<svg width="30" height="30" viewBox="0 0 40 40" fill="none" xmlns="http://www.w3.org/2000/svg">
<g id="Date_range_duotone">
<path id="Rectangle 26" d="M5 14C5 12.1144 5 11.1716 5.58579 10.5858C6.17157 10 7.11438 10 9 10H31C32.8856 10 33.8284 10 34.4142 10.5858C35 11.1716 35 12.1144 35 14V16.6667H5V14Z" fill="#7E869E" fill-opacity="0.25"/>
<rect id="Rectangle 25" x="5" y="10" width="30" height="25" rx="2" stroke="#222222" stroke-width="1.2"/>
<path id="Line 1" d="M11.6667 5L11.6667 10" stroke="#222222" stroke-width="1.2" stroke-linecap="round"/>
<path id="Line 2" d="M28.3333 5L28.3333 10" stroke="#222222" stroke-width="1.2" stroke-linecap="round"/>
<rect id="Rectangle 27" x="11.6667" y="20" width="6.66667" height="3.33333" rx="0.5" fill="#222222"/>
<rect id="Rectangle 29" x="11.6667" y="26.6665" width="6.66667" height="3.33333" rx="0.5" fill="#222222"/>
<rect id="Rectangle 28" x="21.6667" y="20" width="6.66667" height="3.33333" rx="0.5" fill="#222222"/>
<rect id="Rectangle 30" x="21.6667" y="26.6665" width="6.66667" height="3.33333" rx="0.5" fill="#222222"/>
</g>
</svg>
