<svg width="30" height="30" viewBox="0 0 40 40" fill="none" xmlns="http://www.w3.org/2000/svg">
<g id="Chat_alt">
<path id="Rectangle 1" d="M33.3334 14.6665C33.3334 10.8953 33.3334 9.00965 32.1618 7.83808C30.9902 6.6665 29.1046 6.6665 25.3334 6.6665H14.6667C10.8954 6.6665 9.00983 6.6665 7.83826 7.83808C6.66669 9.00965 6.66669 10.8953 6.66669 14.6665V31.3332C6.66669 32.276 6.66669 32.7474 6.95958 33.0403C7.25247 33.3332 7.72388 33.3332 8.66669 33.3332H25.3334C29.1046 33.3332 30.9902 33.3332 32.1618 32.1616C33.3334 30.99 33.3334 29.1044 33.3334 25.3332V14.6665Z" stroke="#33363F" stroke-width="2"/>
<path id="Vector 7" d="M15 16.6665L25 16.6665" stroke="#33363F" stroke-width="2" stroke-linecap="round" stroke-linejoin="round"/>
<path id="Vector 8" d="M15 23.3335H20" stroke="#33363F" stroke-width="2" stroke-linecap="round" stroke-linejoin="round"/>
</g>
</svg>
