<svg width="30" height="15" viewBox="0 0 30 15" fill="none" xmlns="http://www.w3.org/2000/svg">
<g id="location-point 1">
<path id="Vector" d="M22.1068 2.73079C20.2245 1.7929 17.6715 1.26599 15.0096 1.26599C12.3476 1.26599 9.79469 1.7929 7.9124 2.73079C6.03011 3.66869 4.97266 4.94075 4.97266 6.26714C4.97266 7.59353 6.03011 8.86559 7.9124 9.80348L14.1461 12.9155C14.2561 12.9707 14.3869 13.0146 14.531 13.0445C14.6752 13.0744 14.8298 13.0898 14.9859 13.0898C15.1421 13.0898 15.2967 13.0744 15.4408 13.0445C15.585 13.0146 15.7158 12.9707 15.8258 12.9155L22.1068 9.77402C23.9812 8.84002 25.0342 7.57326 25.0342 6.2524C25.0342 4.93155 23.9812 3.66479 22.1068 2.73079ZM20.4153 8.93119L15.0096 11.6365L9.6039 8.93119C8.53594 8.39856 7.80887 7.72013 7.5146 6.98165C7.22033 6.24317 7.37206 5.4778 7.95062 4.78227C8.52917 4.08675 9.50858 3.49232 10.765 3.0741C12.0215 2.65588 13.4986 2.43267 15.0096 2.43267C16.5206 2.43267 17.9977 2.65588 19.2541 3.0741C20.5106 3.49232 21.49 4.08675 22.0685 4.78227C22.6471 5.4778 22.7988 6.24317 22.5046 6.98165C22.2103 7.72013 21.4832 8.39856 20.4153 8.93119ZM11.461 4.45771C10.5061 4.93498 9.96987 5.58142 9.96987 6.25535C9.96987 6.92928 10.5061 7.57572 11.461 8.05299C12.1704 8.40709 13.0739 8.64891 14.0581 8.74812C15.0424 8.84733 16.0635 8.79951 16.9933 8.61065C17.9232 8.42179 18.7204 8.10031 19.285 7.68654C19.8496 7.27277 20.1564 6.78514 20.1669 6.28482C20.1722 5.95076 20.043 5.61955 19.7871 5.31079C19.5311 5.00202 19.1534 4.72197 18.6765 4.48718C18.2077 4.24823 17.6486 4.05783 17.0316 3.92694C16.4145 3.79605 15.7516 3.72726 15.081 3.72452C14.4104 3.72178 13.7453 3.78515 13.1241 3.91098C12.5028 4.03681 11.9376 4.22262 11.461 4.45771ZM17.0086 7.21606C16.5604 7.44282 15.9679 7.58496 15.3327 7.61817C14.6974 7.65138 14.0586 7.57361 13.5257 7.39814C12.9927 7.22267 12.5987 6.96041 12.4108 6.65619C12.223 6.35197 12.2531 6.02469 12.4959 5.7303C12.7388 5.4359 13.1793 5.19269 13.7422 5.04223C14.3052 4.89177 14.9555 4.84341 15.582 4.90542C16.2086 4.96743 16.7724 5.13596 17.1772 5.38219C17.582 5.62842 17.8025 5.93706 17.8011 6.25535C17.7839 6.61916 17.4776 6.9647 16.9495 7.21606H17.0086Z" fill="white"/>
</g>
</svg>
