<svg width="43" height="23" viewBox="0 0 43 23" fill="none" xmlns="http://www.w3.org/2000/svg">
<g id="sort-amount-down 1">
<path id="Vector" d="M11.577 12.6336L11.0624 12.8989V6.18865C11.0624 5.95418 10.8755 5.72931 10.5428 5.56351C10.21 5.39771 9.75872 5.30457 9.28815 5.30457C8.81758 5.30457 8.36628 5.39771 8.03354 5.56351C7.70079 5.72931 7.51386 5.95418 7.51386 6.18865V12.8989L6.99931 12.6336C6.66521 12.4672 6.21206 12.3736 5.73956 12.3736C5.26706 12.3736 4.81392 12.4672 4.47981 12.6336C4.14571 12.8001 3.95801 13.0259 3.95801 13.2613C3.95801 13.4968 4.14571 13.7226 4.47981 13.889L8.0284 15.6572C8.19714 15.7377 8.39612 15.8008 8.61392 15.8429C8.8263 15.8896 9.05595 15.9138 9.28815 15.9138C9.52036 15.9138 9.75 15.8896 9.96238 15.8429C10.1802 15.8008 10.3792 15.7377 10.5479 15.6572L14.0965 13.889C14.2619 13.8066 14.3932 13.7088 14.4827 13.6011C14.5722 13.4934 14.6183 13.3779 14.6183 13.2613C14.6183 13.1448 14.5722 13.0293 14.4827 12.9216C14.3932 12.8139 14.2619 12.7161 14.0965 12.6336C13.9311 12.5512 13.7347 12.4858 13.5185 12.4412C13.3024 12.3966 13.0707 12.3736 12.8367 12.3736C12.6028 12.3736 12.3711 12.3966 12.155 12.4412C11.9388 12.4858 11.7424 12.5512 11.577 12.6336ZM19.9339 7.07274H37.6769C38.1474 7.07274 38.5987 6.97959 38.9315 6.8138C39.2642 6.648 39.4512 6.42313 39.4512 6.18865C39.4512 5.95418 39.2642 5.72931 38.9315 5.56351C38.5987 5.39771 38.1474 5.30457 37.6769 5.30457H19.9339C19.4633 5.30457 19.012 5.39771 18.6793 5.56351C18.3466 5.72931 18.1596 5.95418 18.1596 6.18865C18.1596 6.42313 18.3466 6.648 18.6793 6.8138C19.012 6.97959 19.4633 7.07274 19.9339 7.07274ZM37.6769 9.725H19.9339C19.4633 9.725 19.012 9.81814 18.6793 9.98394C18.3466 10.1497 18.1596 10.3746 18.1596 10.6091C18.1596 10.8436 18.3466 11.0684 18.6793 11.2342C19.012 11.4 19.4633 11.4932 19.9339 11.4932H37.6769C38.1474 11.4932 38.5987 11.4 38.9315 11.2342C39.2642 11.0684 39.4512 10.8436 39.4512 10.6091C39.4512 10.3746 39.2642 10.1497 38.9315 9.98394C38.5987 9.81814 38.1474 9.725 37.6769 9.725ZM37.6769 14.1454H19.9339C19.4633 14.1454 19.012 14.2386 18.6793 14.4044C18.3466 14.5702 18.1596 14.795 18.1596 15.0295C18.1596 15.264 18.3466 15.4889 18.6793 15.6547C19.012 15.8205 19.4633 15.9136 19.9339 15.9136H37.6769C38.1474 15.9136 38.5987 15.8205 38.9315 15.6547C39.2642 15.4889 39.4512 15.264 39.4512 15.0295C39.4512 14.795 39.2642 14.5702 38.9315 14.4044C38.5987 14.2386 38.1474 14.1454 37.6769 14.1454Z" fill="#BCC1CD"/>
</g>
</svg>
